<svg width="246" height="265" viewBox="0 0 246 265" fill="none" xmlns="http://www.w3.org/2000/svg">
<path d="M9.50272 -327.826C32.3431 -388.164 -55.9516 70.5157 136.887 231.544C366.023 70.5157 159.085 -407.075 184.352 -353.916C209.619 -300.756 226.593 -224.882 232.034 -140.771C237.476 -56.6601 231.004 29.7991 213.854 102.109C196.704 174.419 170.076 227.517 139.052 251.272C108.028 275.027 74.7787 267.775 45.6492 230.901C16.5197 194.026 -6.45093 130.11 -18.8795 51.3492C-31.308 -27.4118 -32.3244 -115.504 -21.7348 -196.119L-14.3894 -189.385C-24.3527 -113.538 -23.3965 -30.6565 -11.703 43.4462C-0.00953674 117.549 21.6025 177.684 49.0091 212.378C76.4157 247.071 107.698 253.894 136.887 231.544C166.077 209.195 191.13 159.237 207.265 91.2038C223.401 23.1707 229.49 -58.1747 224.37 -137.311C219.25 -216.447 203.281 -287.833 179.508 -337.849C155.735 -387.864 125.824 -413.007 95.4817 -408.48C65.1393 -403.952 36.4901 -370.072 15.0006 -313.303L9.50272 -327.826Z" fill="#FFD920"/>
</svg>
